<svg width="111" height="30" viewBox="0 0 111 30" fill="#FFFFFF" xmlns="http://www.w3.org/2000/svg">
<path d="M17.1704 19.9886C17.8187 19.9886 18.3989 20.2738 18.7743 20.8795L19.7302 20.2738C19.1498 19.2759 18.2967 18.8128 17.1704 18.8128C16.3852 18.8128 15.7368 18.9907 15.259 19.4898C14.6105 19.9884 14.3031 20.5945 14.3031 21.3781C14.3031 22.4473 15.0883 23.231 16.4876 23.9437L17.1703 24.2289C18.194 24.7275 18.7741 25.3336 18.7741 26.1176L18.2965 27.507L16.9654 28.0775L15.6343 27.6142L15.1562 26.2241L13.9278 26.5093C14.03 27.3288 14.3031 28.0058 14.8835 28.5051C15.4638 28.968 16.1121 29.2887 16.8629 29.2887C17.7162 29.2887 18.4671 28.968 19.1498 28.3978L20.0031 26.1176C20.0031 24.8346 19.2522 23.8371 17.6138 23.1599L16.8629 22.8392C16.0097 22.4473 15.5317 21.9483 15.5317 21.3781C15.5317 20.9863 15.7366 20.6656 16.1121 20.3806L17.1704 19.9886Z" fill="white"/>
<path d="M23.9625 20.1666H26.2493V18.9907H20.3788V20.1666H22.7339V29.075H23.9625V20.1666Z" fill="white"/>
<path d="M34.0995 25.4407V18.9907H32.8711V24.9416C32.8711 27.0083 32.0859 28.0777 30.5159 28.0777C28.9799 28.0777 28.2291 27.0085 28.2291 24.9416V18.9907H27.0003V25.4407C27.0003 26.5095 27.2734 27.507 27.9559 28.2199C28.6046 28.8969 29.4579 29.2887 30.5159 29.2887C31.6423 29.2887 32.4956 28.8969 33.1441 28.2199C33.7923 27.507 34.0995 26.5097 34.0995 25.4407Z" fill="white"/>
<path d="M37.7174 18.9907H35.6353V29.075H37.6151L37.342 27.8992H36.8643V20.1664H37.342C40.3459 20.1664 41.8817 21.485 41.8817 24.0509C41.8817 26.6165 40.3457 27.8992 37.342 27.8992L37.6151 29.075C39.2192 29.075 40.5505 28.6832 41.4719 27.7923C42.5299 26.9019 43.1105 25.6186 43.1105 23.9437C43.1105 22.3401 42.5299 21.0574 41.4719 20.1666C40.448 19.3829 39.2194 18.9907 37.7174 18.9907Z" fill="white"/>
<path d="M45.4655 18.9907H44.2365V29.075H45.4655V18.9907Z" fill="white"/>
<path d="M56.7288 24.051C56.7288 22.554 56.2512 21.3781 55.2271 20.3806C54.1691 19.2759 53.0424 18.8126 51.6434 18.8126C50.2097 18.8126 49.0834 19.2759 48.1276 20.3806L48.8786 21.1643C49.6296 20.3806 50.5852 19.9884 51.6434 19.9884C52.7697 19.9884 53.7253 20.3806 54.4763 21.1643C55.1247 21.9483 55.5002 22.9462 55.5002 24.051C55.5002 25.1197 55.1247 26.1177 54.3737 26.9017C53.6228 27.6853 52.6673 28.0775 51.6434 28.0775C50.5852 28.0775 49.7317 27.6853 48.9809 26.9017C48.2303 26.1177 47.8548 25.1197 47.8548 24.051C47.8548 22.9462 48.2303 21.9483 48.8786 21.1643L48.1276 20.3806C47.0696 21.3781 46.5916 22.554 46.5916 24.051C46.5916 25.5116 47.0694 26.7944 48.1276 27.7921C49.0834 28.7901 50.2097 29.2887 51.6434 29.2887C53.0424 29.2887 54.2714 28.7901 55.2271 27.7921C56.2512 26.7944 56.7288 25.5118 56.7288 24.051Z" fill="white"/>
<path d="M69.0505 21.5565L69.9036 20.7725C68.8456 19.4898 67.6166 18.8126 66.0123 18.8126C64.6133 18.8126 63.4526 19.2759 62.4288 20.3806C61.4732 21.3781 60.9953 22.554 60.9953 24.051C60.9953 25.5116 61.4732 26.7233 62.4288 27.6853C63.3845 28.7901 64.5109 29.2889 65.8419 29.2889C67.1728 29.2889 68.2993 28.7903 69.1526 27.8992C70.0059 27.0081 70.4837 25.8325 70.4837 24.4428V24.051H66.5929V25.1197H69.1526L68.0946 27.3288L65.9102 28.2197C64.8862 28.2197 64.0329 27.7919 63.2819 26.9015C62.5312 26.0106 62.1214 25.1195 62.1214 24.0507C62.1214 22.946 62.5312 21.9481 63.2819 21.1641C64.0329 20.2736 64.9886 19.8814 66.0123 19.8814C67.2413 19.8816 68.2993 20.4877 69.0505 21.5565Z" fill="white"/>
<path d="M71.5077 18.9907V29.075H72.7365V24.2291H77.3783V29.075H78.5046V18.9907H77.3783V23.0532H72.7365V18.9907H71.5077Z" fill="white"/>
<path d="M81.44 29.075V18.9907H80.2114V29.075H81.44Z" fill="white"/>
<path d="M84.3754 18.9907H83.1466V29.075H85.4336L87.7887 28.5053C88.4711 28.0062 88.8466 27.1866 88.8466 26.2958L88.2663 24.6209C87.8908 24.1222 87.413 23.8373 86.8669 23.7304V23.6589C87.5153 23.3382 87.8908 22.661 87.8908 21.7702C87.8908 19.8816 86.7645 18.9907 84.3754 18.9907V20.0955H84.6824C86.0816 20.0955 86.7645 20.6656 86.7645 21.77C86.7645 22.8392 86.0818 23.4448 84.6824 23.4448H84.3754V24.4428H85.1604C86.7645 24.4428 87.618 25.0129 87.618 26.2243C87.618 27.4005 86.8669 28.0062 85.3311 28.0062H84.3754V24.443V23.4451V20.0957" fill="white"/>
<path d="M90.1776 29.075H94.3416V27.8992H91.3039V18.9907H90.1776V29.075Z" fill="white"/>
<path d="M96.2189 29.075V18.9907H94.9903V29.075H96.2189Z" fill="white"/>
<path d="M1.33342 2.27876V3.88236H8.36458C7.6817 5.84223 6.55543 7.62355 5.01962 9.1916C3.6204 10.6882 2.18654 11.6861 0.582443 12.2562L1.53809 13.5744C3.41553 12.7549 5.22449 11.4007 6.93111 9.29844L11.0949 13.6459L12.3235 12.2562L7.78423 8.12281C9.01264 6.34087 9.96848 4.38121 10.4463 2.27876H1.33342Z" fill="white"/>
<path d="M17.0679 4.77281H21.8123C21.5051 6.23382 20.959 7.44561 20.174 8.51441L17.0679 6.4477L16.0099 7.5165L19.15 9.69024C17.4434 11.1872 15.5321 12.1847 13.3819 12.5765L14.235 13.9662C19.6279 12.6836 22.8361 9.1201 23.6894 3.38309H17.9212L18.6722 1.88654L17.0679 1.49452C16.1123 4.06008 14.6105 5.94844 12.5286 7.01785L13.5525 8.22923L17.0679 4.77281Z" fill="white"/>
<path d="M35.3283 4.84431L33.7923 4.16733C32.939 6.83972 31.9151 8.79999 30.5156 9.90433C29.287 10.9731 27.2732 11.5792 24.7475 11.7927L25.123 13.4676C28.0584 13.1469 30.2086 12.2562 31.847 10.902C33.1439 9.61936 34.3044 7.62354 35.3283 4.84431Z" fill="white"/>
<path d="M35.9087 3.06238L35.26 0.99588L34.0995 1.20976L34.8505 3.3833L35.9087 3.06238Z" fill="white"/>
<path d="M24.5427 5.23611L23.9625 6.73308L27.751 8.30073L28.3312 6.73308L24.5427 5.23611Z" fill="white"/>
<path d="M25.6691 2.10062L25.0209 3.56163C26.352 3.95344 27.5806 4.4525 28.8092 5.05819L29.4577 3.56163L25.6691 2.10062Z" fill="white"/>
<path d="M32.2223 1.3879L32.8709 3.66848L33.9972 3.38331L33.3487 1.10272L32.2223 1.3879Z" fill="white"/>
<path d="M50.3805 2.10062L49.7319 3.56163C50.9607 3.88235 52.1895 4.3812 53.4183 5.05819L54.1693 3.56163L50.3805 2.10062Z" fill="white"/>
<path d="M49.2541 5.23611L48.6056 6.73308L52.3942 8.30073L53.0424 6.73308C52.2918 6.23402 51.063 5.73517 49.2541 5.23611Z" fill="white"/>
<path d="M59.9712 4.84431L58.5376 4.16733C57.6845 6.83972 56.5582 8.79999 55.227 9.90433C53.9982 10.9731 52.0187 11.5792 49.4587 11.7927L49.8342 13.4676C52.7696 13.1469 54.9541 12.2562 56.4557 10.902C57.8893 9.61936 59.0156 7.62354 59.9712 4.84431Z" fill="white"/>
<path d="M59.4934 3.3833L60.6199 3.06238L59.9712 0.99588L58.8109 1.20976L59.4934 3.3833Z" fill="white"/>
<path d="M57.5819 3.66848L58.7424 3.38331L58.0599 1.10272L56.9337 1.3879L57.5819 3.66848Z" fill="white"/>
<path d="M73.3168 2.67057L72.7365 0.710907L71.6104 0.995878L72.1904 2.99149L73.3168 2.67057Z" fill="white"/>
<path d="M70.9616 2.88444L71.4053 2.7776L70.8592 0.817734L69.6304 1.1027L70.1767 2.88444H61.5755V4.45249H70.1083C69.8012 7.12489 68.7771 9.19159 66.9682 10.5102L62.7018 12.0779L63.5549 13.6459C68.7769 12.4701 71.5077 8.90682 71.7808 2.88444H70.9616Z" fill="white"/>
<path d="M83.0783 1.88673H81.44V7.90892C81.44 9.61935 80.8939 10.7952 79.7674 11.4722L75.3986 12.3628L75.8766 13.9664L79.0847 13.3607L81.0643 12.3628C82.3954 11.294 83.0781 9.61935 83.0781 7.23193V1.88673" fill="white"/>
<path d="M76.2519 2.10062H74.716V9.79728H76.2519V2.10062Z" fill="white"/>
<path d="M87.3447 4.55934L88.5733 1.28085L87.14 0.99588C86.5597 3.49014 85.5357 5.34337 84.1023 6.83952L84.6826 8.22924L85.9114 6.94697V14.2516H87.3447V4.55934Z" fill="white"/>
<path d="M90.2801 0.99588C89.8023 3.16942 88.8466 4.84432 87.618 6.12699L88.4712 7.44562L90.5533 4.38101H91.0994V14.2514H92.5328V11.1872H96.6969V9.79709H92.5328V7.73059H96.6969V6.34087H92.5328V4.38101H97.0043V2.99129H91.2017L91.7819 1.20956L90.2801 0.99588Z" fill="white"/>
<path d="M99.4615 1.49472V6.4479H108.745V1.49472L107.414 2.7776V5.16502H100.861V2.7776H107.414L108.745 1.49472H99.4615Z" fill="white"/>
<path d="M102.192 13.5744V14.1801H103.421V7.62355H98.2327V14.2516H99.4615V13.5744H102.192V12.2562H99.4615V8.90684H102.192V12.2562" fill="white"/>
<path d="M108.643 13.5744V14.2516H109.974V7.62355H104.479V14.2516H105.81V13.5744V12.2562V8.90684H108.643V12.2562H105.81V13.5744H108.643Z" fill="white"/>
<path d="M36.4888 3.88236V5.45001H42.2571C41.1992 7.44582 39.3217 9.40548 36.5571 11.4009L37.4102 12.7551C39.3217 11.4724 40.8235 10.0112 41.9838 8.51462L43.1784 6.73309V13.7528H44.7144V5.45001H47.7519V3.88236H44.612V1.60178H43.1784V3.88236H36.4888Z" fill="white"/>
<path d="M110.895 16.3183V16.1404H0.104614V16.3183H110.895Z" fill="white"/>
</svg>
